<svg width="25" height="25" viewBox="0 0 25 25" fill="none" xmlns="http://www.w3.org/2000/svg">
<g clip-path="url(#clip0_121_6674)">
<path d="M11.8734 0.00388192C9.86719 0.0281007 5.55391 0.357788 3.14141 2.57107C1.34688 4.34919 0.720313 6.9781 0.646875 10.2289C0.585938 13.4679 0.5125 19.5508 6.37578 21.207V23.7297C6.37578 23.7297 6.33906 24.739 7.00625 24.9461C7.82813 25.2062 8.29609 24.4297 9.07734 23.5953L10.5344 21.9476C14.5461 22.2812 17.6187 21.5125 17.9727 21.3984C18.7867 21.1383 23.3719 20.5523 24.1211 14.4687C24.8898 8.18591 23.7469 4.22732 21.6836 2.43669H21.6711C21.0484 1.86326 18.5461 0.0398194 12.9555 0.0195069C12.9555 0.0195069 12.5406 -0.00861808 11.8734 0.00310067V0.00388192ZM11.9422 1.77029C12.5117 1.76638 12.8578 1.7906 12.8578 1.7906C17.5898 1.8031 19.8484 3.22732 20.3812 3.70701C22.1187 5.19607 23.0141 8.76482 22.3586 14.0101C21.7359 19.0961 18.0172 19.4179 17.3289 19.6375C17.0359 19.7312 14.3297 20.3984 10.9203 20.1789C10.9203 20.1789 8.38125 23.2429 7.5875 24.032C7.46172 24.1703 7.31484 24.2109 7.22109 24.1906C7.08672 24.1578 7.04609 23.9914 7.05391 23.7633L7.07813 19.5765C2.10547 18.2015 2.39844 13.0133 2.45156 10.3031C2.5125 7.59294 3.02109 5.37576 4.53516 3.87419C6.57344 2.03123 10.2359 1.78279 11.9406 1.77029H11.9422ZM12.3172 4.47966C12.2763 4.47925 12.2357 4.48694 12.1977 4.5023C12.1598 4.51765 12.1253 4.54036 12.0961 4.56912C12.067 4.59788 12.0439 4.63212 12.028 4.66986C12.0122 4.70761 12.004 4.74811 12.0039 4.78904C12.0039 4.96404 12.1461 5.10232 12.3172 5.10232C13.0918 5.08759 13.8617 5.22636 14.5824 5.51062C15.3031 5.79489 15.9604 6.21902 16.5164 6.75857C17.6516 7.86091 18.2047 9.34216 18.2258 11.2789C18.2258 11.45 18.3641 11.5922 18.5391 11.5922V11.5797C18.6215 11.5799 18.7008 11.5475 18.7594 11.4895C18.8181 11.4316 18.8515 11.3528 18.8523 11.2703C18.8903 10.3587 18.7424 9.44889 18.4178 8.5962C18.0932 7.74351 17.5986 6.96573 16.9641 6.31013C15.7273 5.10154 14.1602 4.47888 12.3172 4.47888V4.47966ZM8.19922 5.19607C7.97808 5.16376 7.75255 5.20815 7.56016 5.32185H7.54375C7.09708 5.58368 6.6947 5.9146 6.35156 6.30232C6.06641 6.63201 5.91172 6.9656 5.87109 7.28669C5.84688 7.4781 5.86328 7.66951 5.92031 7.85232L5.94063 7.86482C6.26172 8.80857 6.68125 9.71638 7.19375 10.5711C7.85392 11.7718 8.66637 12.8823 9.61094 13.875L9.63906 13.9156L9.68359 13.9484L9.71172 13.9812L9.74453 14.0094C10.7408 14.9567 11.854 15.7729 13.057 16.4383C14.432 17.1867 15.2664 17.5406 15.7672 17.6875V17.6953C15.9141 17.7398 16.0477 17.7601 16.182 17.7601C16.6088 17.7289 17.0128 17.5556 17.3297 17.2679C17.7156 16.9247 18.0429 16.5207 18.2984 16.0719V16.064C18.5383 15.6125 18.457 15.1851 18.1109 14.8961C17.4178 14.2902 16.6683 13.7521 15.8727 13.289C15.3398 13 14.7984 13.175 14.5789 13.4679L14.1109 14.0578C13.8711 14.3508 13.4352 14.3101 13.4352 14.3101L13.4227 14.3179C10.1719 13.4875 9.30469 10.1961 9.30469 10.1961C9.30469 10.1961 9.26406 9.74841 9.56484 9.52029L10.1508 9.04841C10.4313 8.82029 10.6266 8.27966 10.3258 7.74607C9.86594 6.94931 9.32899 6.19962 8.72266 5.50779C8.5901 5.34469 8.40414 5.23372 8.19766 5.19451L8.19922 5.19607ZM12.8578 6.12419C12.443 6.12419 12.443 6.75076 12.8617 6.75076C13.3776 6.75912 13.8867 6.86907 14.36 7.0743C14.8334 7.27953 15.2616 7.57603 15.6203 7.94685C15.9475 8.3078 16.199 8.73074 16.3597 9.19063C16.5205 9.65052 16.5873 10.138 16.5562 10.6242C16.5577 10.7065 16.5913 10.7849 16.6498 10.8427C16.7084 10.9006 16.7872 10.9332 16.8695 10.9336L16.882 10.95C16.9649 10.9494 17.0443 10.9162 17.1029 10.8575C17.1615 10.7989 17.1947 10.7196 17.1953 10.6367C17.2234 9.39529 16.8375 8.35388 16.0805 7.51951C15.3195 6.68513 14.2578 6.21716 12.9023 6.12419H12.8578V6.12419ZM13.3711 7.80857C12.9437 7.79607 12.9273 8.43513 13.3508 8.44763C14.3805 8.50076 14.8805 9.02107 14.9461 10.0914C14.9475 10.1726 14.9807 10.2501 15.0385 10.3072C15.0963 10.3643 15.1742 10.3965 15.2555 10.3969H15.268C15.3097 10.3951 15.3507 10.385 15.3886 10.3672C15.4264 10.3493 15.4603 10.3242 15.4883 10.2931C15.5163 10.2621 15.5378 10.2258 15.5517 10.1863C15.5655 10.1468 15.5713 10.105 15.5687 10.0633C15.4953 8.66794 14.7344 7.88201 13.3836 7.80935H13.3711V7.80857Z" fill="white"/>
</g>
<defs>
<clipPath id="clip0_121_6674">
<rect width="25" height="25" fill="white"/>
</clipPath>
</defs>
</svg>
